HIERARCHY
ROOT Hips
{
	OFFSET 0.000000 0.000000 0.000000
	CHANNELS 6 Xposition Yposition Zposition Zrotation Xrotation Yrotation
	JOINT Spine
	{
		OFFSET 0.000000 -0.000000 0.081436
		CHANNELS 6 Xposition Yposition Zposition Zrotation Xrotation Yrotation
		JOINT Spine1
		{
			OFFSET 0.000000 -0.000000 0.206037
			CHANNELS 6 Xposition Yposition Zposition Zrotation Xrotation Yrotation
			JOINT Neck
			{
				OFFSET 0.000000 -0.000000 0.206037
				CHANNELS 6 Xposition Yposition Zposition Zrotation Xrotation Yrotation
				JOINT Head
				{
					OFFSET 0.000000 -0.000000 0.109243
					CHANNELS 6 Xposition Yposition Zposition Zrotation Xrotation Yrotation
					End Site
					{
						OFFSET 0.000000 -0.000000 0.248279
					}
				}
			}
			JOINT LeftShoulder
			{
				OFFSET 0.039631 0.002820 0.186820
				CHANNELS 6 Xposition Yposition Zposition Zrotation Xrotation Yrotation
				JOINT LeftArm
				{
					OFFSET 0.111855 0.000000 0.000000
					CHANNELS 6 Xposition Yposition Zposition Zrotation Xrotation Yrotation
					JOINT LeftForeArm
					{
						OFFSET 0.340751 0.000000 0.000000
						CHANNELS 6 Xposition Yposition Zposition Zrotation Xrotation Yrotation
						JOINT LeftHand
						{
							OFFSET 0.213779 0.000000 0.000000
							CHANNELS 6 Xposition Yposition Zposition Zrotation Xrotation Yrotation
							End Site
							{
								OFFSET 0.148968 0.000000 0.000000
							}
						}
					}
				}
			}
			JOINT RightShoulder
			{
				OFFSET -0.039679 0.002820 0.186820
				CHANNELS 6 Xposition Yposition Zposition Zrotation Xrotation Yrotation
				JOINT RightArm
				{
					OFFSET -0.111855 0.000000 0.000000
					CHANNELS 6 Xposition Yposition Zposition Zrotation Xrotation Yrotation
					JOINT RightForeArm
					{
						OFFSET -0.340751 0.000000 0.000000
						CHANNELS 6 Xposition Yposition Zposition Zrotation Xrotation Yrotation
						JOINT RightHand
						{
							OFFSET -0.213779 0.000000 0.000000
							CHANNELS 6 Xposition Yposition Zposition Zrotation Xrotation Yrotation
							End Site
							{
								OFFSET -0.148968 0.000000 0.000000
							}
						}
					}
				}
			}
		}
	}
	JOINT LeftUpLeg
	{
		OFFSET 0.099312 0.000000 0.000000
		CHANNELS 6 Xposition Yposition Zposition Zrotation Xrotation Yrotation
		JOINT LeftLeg
		{
			OFFSET 0.000000 0.000000 -0.476468
			CHANNELS 6 Xposition Yposition Zposition Zrotation Xrotation Yrotation
			JOINT LeftFoot
			{
				OFFSET 0.000000 0.000000 -0.378939
				CHANNELS 6 Xposition Yposition Zposition Zrotation Xrotation Yrotation
				JOINT LeftToeBase
				{
					OFFSET 0.000000 -0.148968 -0.064553
					CHANNELS 6 Xposition Yposition Zposition Zrotation Xrotation Yrotation
					End Site
					{
						OFFSET 0.000000 -0.039725 -0.000000
					}
				}
			}
		}
	}
	JOINT RightUpLeg
	{
		OFFSET -0.099312 0.000000 0.000000
		CHANNELS 6 Xposition Yposition Zposition Zrotation Xrotation Yrotation
		JOINT RightLeg
		{
			OFFSET 0.000000 0.000000 -0.476468
			CHANNELS 6 Xposition Yposition Zposition Zrotation Xrotation Yrotation
			JOINT RightFoot
			{
				OFFSET 0.000000 0.000000 -0.378939
				CHANNELS 6 Xposition Yposition Zposition Zrotation Xrotation Yrotation
				JOINT RightToeBase
				{
					OFFSET 0.000000 -0.148968 -0.064553
					CHANNELS 6 Xposition Yposition Zposition Zrotation Xrotation Yrotation
					End Site
					{
						OFFSET 0.000000 -0.039725 -0.000000
					}
				}
			}
		}
	}
}
MOTION
Frames: 4
Frame Time: 0.041667
0.491678 1.892781 0.992801 -3.098542 7.293515 -3.469511 0.000000 -0.000000 0.081436 0.170713 -9.210642 2.121638 -0.000000 -0.000000 0.206037 -2.692947 5.266296 -2.183048 0.000000 0.000000 0.206037 3.236044 27.542214 -13.148022 0.000000 -0.000000 0.109243 29.503876 4.833600 12.747600 0.039631 0.002820 0.186820 3.613384 13.928976 -1.458308 0.111855 -0.000000 -0.000000 -34.464598 6.317974 69.465421 0.340751 -0.000000 -0.000000 -13.239361 0.575415 -4.953358 0.213779 -0.000000 -0.000000 0.297550 -3.468515 -2.302438 -0.039679 0.002820 0.186820 5.655191 7.643421 3.105519 -0.111855 0.000000 0.000000 52.820879 3.408908 -66.537784 -0.340751 -0.000000 0.000000 27.628143 2.031068 8.247346 -0.213779 0.000000 0.000000 -2.409048 -4.662381 1.727239 0.099312 -0.000000 0.000000 9.842848 -8.981767 -5.627523 0.000000 0.000000 -0.476468 2.245836 2.268501 0.368519 -0.000000 0.000000 -0.378939 9.495897 -0.512946 1.619965 -0.000000 -0.148968 -0.064553 0.000001 -0.000004 0.000001 -0.099312 -0.000000 0.000000 -1.600871 -5.853800 3.939338 0.000000 0.000000 -0.476468 -1.091778 25.616046 3.821517 -0.000000 -0.000000 -0.378939 -13.637339 -17.625298 -11.806711 -0.000000 -0.148968 -0.064553 0.000000 0.000001 -0.000000 
0.496932 1.885294 0.991982 -3.673836 7.522483 -3.089502 -0.000000 -0.000000 0.081436 0.185112 -9.420275 2.249025 0.000000 -0.000000 0.206037 -2.830448 5.084763 -2.136553 -0.000000 -0.000000 0.206037 3.260075 27.262092 -13.385084 -0.000000 0.000000 0.109243 29.210544 5.242501 12.971631 0.039631 0.002820 0.186820 3.297601 13.512658 -1.431255 0.111855 0.000000 -0.000000 -39.138022 6.103427 70.012424 0.340751 -0.000000 0.000000 -10.393874 0.692274 -7.598854 0.213779 -0.000000 -0.000000 -1.130568 -5.346396 0.225059 -0.039679 0.002820 0.186820 5.539908 7.792795 3.057501 -0.111855 0.000000 0.000000 52.820558 3.841954 -67.115215 -0.340751 -0.000000 0.000000 27.222192 1.959480 8.080463 -0.213779 -0.000000 -0.000000 -2.253414 -4.558668 1.308534 0.099312 -0.000000 0.000000 9.813363 -8.617934 -5.626076 0.000000 0.000000 -0.476468 2.229789 2.233930 0.116174 -0.000000 -0.000000 -0.378939 11.839139 -0.937007 3.545913 -0.000000 -0.148968 -0.064553 0.000002 -0.000001 -0.000000 -0.099312 -0.000000 0.000000 -1.133738 -6.080129 4.017309 0.000000 0.000000 -0.476468 -1.678646 26.398667 4.038718 0.000000 -0.000000 -0.378939 -13.294138 -17.443343 -12.120403 0.000000 -0.148968 -0.064553 -0.000001 -0.000002 -0.000000 
0.502056 1.876387 0.991953 -3.954023 7.357456 -2.464880 0.000000 -0.000000 0.081436 0.173637 -9.524929 2.086507 0.000000 -0.000000 0.206037 -3.283366 5.224356 -1.974652 0.000000 -0.000000 0.206037 3.258460 27.278847 -13.370232 0.000000 -0.000000 0.109243 28.979062 5.049466 13.290464 0.039631 0.002820 0.186820 2.884369 13.092757 -1.340878 0.111855 -0.000000 -0.000000 -40.417450 5.524890 69.300540 0.340751 -0.000000 0.000000 -9.932240 0.666721 -7.659845 0.213779 -0.000000 0.000000 -1.491000 -5.568297 -0.090783 -0.039679 0.002820 0.186820 5.371090 7.941218 2.920915 -0.111855 0.000000 0.000000 52.684056 4.147512 -67.619788 -0.340751 0.000000 0.000000 26.461560 1.805784 7.669971 -0.213779 0.000000 -0.000000 -2.203496 -4.627259 1.626424 0.099312 -0.000000 -0.000000 8.982494 -7.775496 -6.275113 0.000000 0.000000 -0.476468 2.760009 1.951656 0.205249 0.000000 0.000000 -0.378939 12.833086 -1.713824 3.580426 0.000000 -0.148968 -0.064553 -0.000000 -0.000001 0.000000 -0.099312 -0.000000 -0.000000 -1.107959 -5.821804 3.743380 -0.000000 -0.000000 -0.476468 -5.717895 27.684290 5.428235 -0.000000 -0.000000 -0.378939 -10.330408 -18.592207 -10.689967 -0.000000 -0.148968 -0.064553 0.000000 0.000002 0.000002 
0.506805 1.868588 0.992903 -4.304496 7.495880 -1.919571 -0.000000 -0.000000 0.081436 0.181304 -9.786690 2.120038 0.000000 -0.000000 0.206037 -3.595974 5.309339 -1.826623 0.000000 -0.000000 0.206037 3.207143 27.144067 -13.228880 0.000000 0.000000 0.109243 28.830843 4.799130 13.251989 0.039631 0.002820 0.186820 2.374934 12.611363 -1.146645 0.111855 -0.000000 0.000000 -41.169112 4.735265 68.161682 0.340751 -0.000000 0.000000 -9.199146 0.576860 -7.159599 0.213779 -0.000000 0.000000 -1.862566 -4.562203 -0.011727 -0.039679 0.002820 0.186820 5.282780 7.733381 2.917972 -0.111855 -0.000000 -0.000000 51.981831 4.124951 -68.533592 -0.340751 0.000000 -0.000000 25.144547 1.650017 7.389290 -0.213779 0.000000 0.000000 -1.674171 -3.522374 0.176005 0.099312 -0.000000 0.000000 9.047901 -7.515529 -6.790058 0.000000 0.000000 -0.476468 2.976845 2.131150 0.481107 0.000000 0.000000 -0.378939 13.442022 -2.216324 4.877017 0.000000 -0.148968 -0.064553 0.000001 0.000002 -0.000001 -0.099312 -0.000000 0.000000 -0.793922 -6.261099 3.425372 -0.000000 0.000000 -0.476468 -7.789532 28.696609 6.794473 -0.000000 0.000000 -0.378939 -8.802201 -17.484777 -10.895745 0.000000 -0.148968 -0.064553 -0.000001 0.000004 -0.000000 
